<?xml version="1.0"?>
<svg xmlns="http://www.w3.org/2000/svg" id="Capa_1" enable-background="new 0 0 512 512" height="512px" viewBox="0 0 512 512" width="512px" class=""><g><g><path d="m71.858 418.114 48.142 24.067v59.819c0 5.522 4.477 10 10 10h106c5.522 0 10-4.478 10-10v-136.55c0-30.638-22.984-56.045-53.384-59.093-.118-.033-42.305-6.619-61.876-26.189l-22.458-22.449c-7.559-7.557-17.602-11.719-28.282-11.719v-80c0-22.056-17.944-40-40-40s-40 17.944-40 40v135.84c0 49.214 27.797 94.239 71.858 116.274zm-51.858-252.114c0-11.028 8.972-20 20-20s20 8.972 20 20v85.362c-12.196 7.052-20 20.199-20 34.638 0 10.681 4.162 20.725 11.718 28.28l51.21 51.22c3.908 3.908 10.239 3.904 14.142.001 3.906-3.904 3.906-10.236.001-14.142l-51.211-51.221c-3.778-3.779-5.86-8.8-5.86-14.138 0-8.464 5.357-16.044 13.332-18.861.001-.001.003-.001.004-.002.002-.001.005-.001.007-.002 6.884-2.442 15.068-1 20.797 4.728l22.458 22.449c23.187 23.186 73.842 31.91 73.943 31.938 20.214 2.026 35.458 18.879 35.458 39.2v126.55h-86v-56c0-3.788-2.14-7.251-5.528-8.944l-53.668-26.83c-37.505-18.757-60.803-56.456-60.803-98.386z" data-original="#000000" class="active-path" data-old_color="#000000" fill="#1B2546"/><path d="m126 70v60c0 5.522 4.477 10 10 10h20v116c0 5.522 4.477 10 10 10h180c5.522 0 10-4.478 10-10v-116h20c5.522 0 10-4.478 10-10v-60c0-5.522-4.478-10-10-10h-55.382c3.416-5.888 5.382-12.717 5.382-20 0-22.056-17.944-40-40-40-11.938 0-22.665 5.264-30 13.585-7.335-8.321-18.062-13.585-30-13.585-22.056 0-40 17.944-40 40 0 7.283 1.966 14.112 5.381 20h-55.381c-5.523 0-10 4.478-10 10zm50 70h70v106h-70zm160 106h-70v-106h70zm30-126h-100v-40h100zm-80-100c11.028 0 20 8.972 20 20s-8.972 20-20 20h-20v-20c0-11.028 8.972-20 20-20zm-80 20c0-11.028 8.972-20 20-20s20 8.972 20 20v20h-20c-11.028 0-20-8.972-20-20zm-60 40h100v40h-100z" data-original="#000000" class="active-path" data-old_color="#000000" fill="#1B2546"/><circle cx="459" cy="394" r="10" data-original="#000000" class="active-path" data-old_color="#000000" fill="#1B2546"/><path d="m472 126c-22.056 0-40 17.944-40 40v80c-10.681 0-20.724 4.162-28.279 11.718l-22.462 22.451c-19.139 19.139-61.695 26.152-61.796 26.181-30.48 3.055-53.463 28.463-53.463 59.1v136.55c0 5.522 4.478 10 10 10h106c5.522 0 10-4.478 10-10v-59.819l32.73-16.362c4.939-2.47 6.942-8.476 4.473-13.416s-8.478-6.943-13.416-4.473l-38.259 19.126c-3.387 1.693-5.528 5.156-5.528 8.944v56h-86v-126.55c0-20.321 15.243-37.174 35.535-39.208.107-.03 49.42-7.484 73.864-31.93l22.462-22.451c5.733-5.735 13.931-7.162 20.795-4.727.002.001.005.001.007.002.001.001.003.001.004.002 13.769 4.865 17.919 22.552 7.471 33.001l-51.21 51.22c-3.905 3.905-3.904 10.237.001 14.142 3.903 3.905 10.237 3.905 14.142-.001l51.21-51.219c18.487-18.49 14.637-49.669-8.281-62.92v-85.361c0-11.028 8.972-20 20-20s20 8.972 20 20v135.84c0 18.296-4.617 36.46-13.353 52.528-2.639 4.853-.844 10.924 4.009 13.562 4.852 2.639 10.924.844 13.562-4.009 10.325-18.991 15.782-40.458 15.782-62.081v-135.84c0-22.056-17.944-40-40-40z" data-original="#000000" class="active-path" data-old_color="#000000" fill="#1B2546"/></g></g> </svg>
